<?xml version="1.0" standalone="no"?>
<!DOCTYPE svg PUBLIC "-//W3C//DTD SVG 20010904//EN"
 "http://www.w3.org/TR/2001/REC-SVG-20010904/DTD/svg10.dtd">
<svg version="1.0" xmlns="http://www.w3.org/2000/svg"
 width="250.000000pt" height="250.000000pt" viewBox="0 0 250.000000 250.000000"
 preserveAspectRatio="xMidYMid meet">
<metadata>
Created by potrace 1.11, written by Peter Selinger 2001-2013
</metadata>
<g transform="translate(0.000000,250.000000) scale(0.100000,-0.100000)"
fill="#000000" stroke="none">
<path d="M1137 2094 c-54 -108 -97 -198 -95 -200 2 -2 44 78 93 177 l90 180 5
-368 5 -368 3 388 c1 213 1 387 -1 387 -1 0 -46 -88 -100 -196z"/>
<path d="M1315 1417 l15 -23 -73 1 c-40 0 -77 4 -84 8 -12 8 -72 -62 -315
-368 -408 -513 -489 -617 -481 -614 6 3 409 243 789 470 45 27 84 49 87 49 3
0 194 -113 424 -251 230 -138 423 -254 428 -257 13 -7 49 -54 -404 516 -216
270 -394 492 -397 492 -2 0 2 -10 11 -23z"/>
<path d="M1700 1419 c0 -4 88 -188 196 -410 108 -222 225 -464 260 -538 l64
-134 -962 8 c-530 4 -964 8 -966 10 -2 2 83 180 189 396 316 649 326 671 297
652 -7 -4 -184 -8 -393 -8 l-380 0 -3 -693 -2 -692 1250 0 1250 0 0 693 0 692
-387 0 c-337 -1 -390 1 -400 15 -7 8 -13 12 -13 9z"/>
<path d="M1243 695 c0 -44 2 -61 4 -37 2 23 2 59 0 80 -2 20 -4 1 -4 -43z"/>
<path d="M1050 555 c-107 -29 -300 -81 -429 -116 -129 -34 -230 -64 -224 -66
5 -2 190 17 410 42 220 25 407 45 416 45 12 0 17 -13 20 -52 l3 -53 2 58 2 58
33 -6 c17 -3 194 -23 392 -45 198 -22 374 -43 390 -46 17 -4 28 -4 25 -1 -3 3
-191 55 -419 116 -227 61 -416 113 -420 115 -3 2 -94 -20 -201 -49z"/>
</g>
</svg>
